<mxfile host="app.diagrams.net" modified="2024-01-16T08:27:53.517Z" agent="Mozilla/5.0 (Macintosh; Intel Mac OS X 10_15_7) AppleWebKit/537.36 (KHTML, like Gecko) Chrome/120.0.0.0 Safari/537.36" etag="HYCr5bwdx5jXV8A7rqvB" version="22.1.18" type="github">
  <diagram id="C5RBs43oDa-KdzZeNtuy" name="Page-1">
    <mxGraphModel dx="1434" dy="647" grid="1" gridSize="10" guides="1" tooltips="1" connect="1" arrows="1" fold="1" page="1" pageScale="1" pageWidth="827" pageHeight="1169" math="0" shadow="0">
      <root>
        <mxCell id="WIyWlLk6GJQsqaUBKTNV-0" />
        <mxCell id="WIyWlLk6GJQsqaUBKTNV-1" parent="WIyWlLk6GJQsqaUBKTNV-0" />
        <mxCell id="T7Tb9E2t_EW6X-HQl4Ex-5" style="edgeStyle=orthogonalEdgeStyle;rounded=0;orthogonalLoop=1;jettySize=auto;html=1;" edge="1" parent="WIyWlLk6GJQsqaUBKTNV-1" source="T7Tb9E2t_EW6X-HQl4Ex-0" target="T7Tb9E2t_EW6X-HQl4Ex-3">
          <mxGeometry relative="1" as="geometry" />
        </mxCell>
        <mxCell id="T7Tb9E2t_EW6X-HQl4Ex-12" value="主" style="edgeLabel;html=1;align=center;verticalAlign=middle;resizable=0;points=[];" vertex="1" connectable="0" parent="T7Tb9E2t_EW6X-HQl4Ex-5">
          <mxGeometry x="0.1333" y="1" relative="1" as="geometry">
            <mxPoint as="offset" />
          </mxGeometry>
        </mxCell>
        <mxCell id="T7Tb9E2t_EW6X-HQl4Ex-6" style="edgeStyle=orthogonalEdgeStyle;rounded=0;orthogonalLoop=1;jettySize=auto;html=1;" edge="1" parent="WIyWlLk6GJQsqaUBKTNV-1" source="T7Tb9E2t_EW6X-HQl4Ex-0" target="T7Tb9E2t_EW6X-HQl4Ex-1">
          <mxGeometry relative="1" as="geometry" />
        </mxCell>
        <mxCell id="T7Tb9E2t_EW6X-HQl4Ex-13" value="备" style="edgeLabel;html=1;align=center;verticalAlign=middle;resizable=0;points=[];" vertex="1" connectable="0" parent="T7Tb9E2t_EW6X-HQl4Ex-6">
          <mxGeometry x="-0.0543" y="-2" relative="1" as="geometry">
            <mxPoint as="offset" />
          </mxGeometry>
        </mxCell>
        <mxCell id="T7Tb9E2t_EW6X-HQl4Ex-9" style="edgeStyle=orthogonalEdgeStyle;rounded=0;orthogonalLoop=1;jettySize=auto;html=1;entryX=0.5;entryY=0;entryDx=0;entryDy=0;" edge="1" parent="WIyWlLk6GJQsqaUBKTNV-1" source="T7Tb9E2t_EW6X-HQl4Ex-0" target="T7Tb9E2t_EW6X-HQl4Ex-8">
          <mxGeometry relative="1" as="geometry" />
        </mxCell>
        <mxCell id="T7Tb9E2t_EW6X-HQl4Ex-10" style="edgeStyle=orthogonalEdgeStyle;rounded=0;orthogonalLoop=1;jettySize=auto;html=1;entryX=0.5;entryY=0;entryDx=0;entryDy=0;" edge="1" parent="WIyWlLk6GJQsqaUBKTNV-1" source="T7Tb9E2t_EW6X-HQl4Ex-0" target="T7Tb9E2t_EW6X-HQl4Ex-7">
          <mxGeometry relative="1" as="geometry" />
        </mxCell>
        <mxCell id="T7Tb9E2t_EW6X-HQl4Ex-0" value="backend" style="rounded=0;whiteSpace=wrap;html=1;" vertex="1" parent="WIyWlLk6GJQsqaUBKTNV-1">
          <mxGeometry x="340" y="170" width="120" height="60" as="geometry" />
        </mxCell>
        <mxCell id="T7Tb9E2t_EW6X-HQl4Ex-1" value="recall-dx" style="rounded=0;whiteSpace=wrap;html=1;" vertex="1" parent="WIyWlLk6GJQsqaUBKTNV-1">
          <mxGeometry x="414" y="340" width="120" height="60" as="geometry" />
        </mxCell>
        <mxCell id="T7Tb9E2t_EW6X-HQl4Ex-3" value="recall-xs" style="rounded=0;whiteSpace=wrap;html=1;fillColor=#fa6800;fontColor=#000000;strokeColor=#C73500;" vertex="1" parent="WIyWlLk6GJQsqaUBKTNV-1">
          <mxGeometry x="270" y="340" width="120" height="60" as="geometry" />
        </mxCell>
        <mxCell id="T7Tb9E2t_EW6X-HQl4Ex-7" value="predictor" style="rounded=0;whiteSpace=wrap;html=1;" vertex="1" parent="WIyWlLk6GJQsqaUBKTNV-1">
          <mxGeometry x="100" y="340" width="120" height="60" as="geometry" />
        </mxCell>
        <mxCell id="T7Tb9E2t_EW6X-HQl4Ex-8" value="user_pref" style="rounded=0;whiteSpace=wrap;html=1;" vertex="1" parent="WIyWlLk6GJQsqaUBKTNV-1">
          <mxGeometry x="590" y="340" width="120" height="60" as="geometry" />
        </mxCell>
        <mxCell id="T7Tb9E2t_EW6X-HQl4Ex-11" value="brpc lib" style="text;html=1;strokeColor=#82b366;fillColor=#d5e8d4;align=center;verticalAlign=middle;whiteSpace=wrap;rounded=0;" vertex="1" parent="WIyWlLk6GJQsqaUBKTNV-1">
          <mxGeometry x="370" y="210" width="60" height="30" as="geometry" />
        </mxCell>
      </root>
    </mxGraphModel>
  </diagram>
</mxfile>
